<svg xmlns="http://www.w3.org/2000/svg" height="42" width="118">
    <path fill="#fff"
          d="M17.413 19.348V9.726a11.25 11.25 0 0 0 6.58 2.116V8.166a6.57 6.57 0 0 1-3.584-2.122 6.6 6.6 0 0 1-2.887-4.316h-3.463l-.006 18.968a3.98 3.98 0 0 1-3.967 3.83 3.99 3.99 0 0 1-3.225-1.656 3.99 3.99 0 0 1-2.134-3.523A3.98 3.98 0 0 1 8.7 15.372c.409 0 .805.07 1.176.185v-3.708c-4.702.103-8.496 3.964-8.496 8.701 0 2.29.888 4.373 2.338 5.933a8.67 8.67 0 0 0 4.989 1.58c4.797 0 8.706-3.913 8.706-8.715M30.048 8.179h14.775l-1.355 4.232h-3.832v15.644h-4.778V12.41l-4.804.006zm38.984 0h15.12l-1.354 4.232h-4.172v15.644h-4.784V12.41l-4.803.006zM45.73 14.502h4.733v13.553h-4.708zm6.617-6.374h4.733v9.257l4.689-4.61h5.647l-5.934 5.76 6.643 9.52h-5.213l-4.433-6.598-1.405 1.362v5.236h-4.733V8.128zm50.143 0h4.734v9.257l4.688-4.61h5.647l-5.934 5.76 6.643 9.52h-5.206l-4.433-6.598-1.405 1.362v5.236h-4.734zm-54.396 4.826a2.384 2.384 0 1 0-.002-4.771 2.384 2.384 0 0 0 .002 4.771"></path>
</svg>